<svg width="1792" height="1792" xmlns="http://www.w3.org/2000/svg">
   <path stroke="null" id="svg_1" d="m1372.04829,1054.604763l0,302.738419q0,112.580849 -79.941864,192.522713t-192.522713,79.941864l-787.119888,0q-112.580849,0 -192.522713,-79.941864t-79.941864,-192.522713l0,-787.119888q0,-112.580849 79.941864,-192.522713t192.522713,-79.941864l666.024521,0q13.244806,0 21.759324,8.514518t8.514518,21.759324l0,60.547684q0,13.244806 -8.514518,21.759324t-21.759324,8.514518l-666.024521,0q-62.439799,0 -106.904504,44.464705t-44.464705,106.904504l0,787.119888q0,62.439799 44.464705,106.904504t106.904504,44.464705l787.119888,0q62.439799,0 106.904504,-44.464705t44.464705,-106.904504l0,-302.738419q0,-13.244806 8.514518,-21.759324t21.759324,-8.514518l60.547684,0q13.244806,0 21.759324,8.514518t8.514518,21.759324zm363.286102,-817.39373l0,484.38147q0,24.597497 -17.975094,42.57259t-42.57259,17.975094t-42.57259,-17.975094l-166.50613,-166.50613l-616.829528,616.829528q-9.460576,9.460576 -21.759324,9.460576t-21.759324,-9.460576l-107.850562,-107.850562q-9.460576,-9.460576 -9.460576,-21.759324t9.460576,-21.759324l616.829528,-616.829528l-166.50613,-166.50613q-17.975094,-17.975094 -17.975094,-42.57259t17.975094,-42.57259t42.57259,-17.975094l484.38147,0q24.597497,0 42.57259,17.975094t17.975094,42.57259z"/>
</svg>
