<svg width="32" height="32" viewBox="0 0 32 32" fill="none" xmlns="http://www.w3.org/2000/svg">
<path d="M4 7V25H28V7H4ZM10.623 14.929L6 20.641V11.183L10.623 14.929ZM6.482 9H25.517L16 16.713L6.482 9ZM12.176 16.188L16 19.287L19.83 16.183L25.442 23H6.663L12.176 16.188ZM21.384 14.924L26 11.183V20.531L21.384 14.924Z" fill="black"/>
<path d="M0 0H32V8H0V0Z" fill="black"/>
<path d="M1 24H33V32H1V24Z" fill="black"/>
<path d="M0 0H5V32H0V0Z" fill="black"/>
<path d="M27 0H32V32H27V0Z" fill="black"/>
</svg>
